<svg width="702" height="140" viewBox="0 0 702 140" fill="none" xmlns="http://www.w3.org/2000/svg">
<path d="M86.2569 24.5267H69.0184C65.9035 24.5366 66.0201 29.1792 69.0184 29.1519H86.2569V31.5253H69.0184C65.9209 31.498 66.035 36.1381 69.0184 36.1505H86.2569V38.5759H69.0184C65.9209 38.5759 66.035 43.2135 69.0184 43.2011H86.2569V45.5125H69.0184C65.9854 45.5348 66.035 50.1774 69.0184 50.1922H86.2569V52.5086H69.0184C65.9854 52.4986 65.973 57.1338 69.0184 57.1338H86.2569V59.4451H69.0184C65.9854 59.455 65.973 64.0951 69.0184 64.0728H86.2569V66.4412H69.0184C65.9854 66.4139 65.973 71.049 69.0184 71.0664H86.2569V73.3728H69.0184C65.9854 73.3703 66.035 78.0154 69.0184 78.0005H86.2569V123.035C86.2668 129.897 96.6902 129.773 96.72 123.035V17.6472C96.6902 14.5125 94.116 10.5494 89.8802 10.537H69.0184C65.9035 10.5395 66.0201 15.1821 69.0184 15.1622L86.2569 15.2193V17.5257H69.0184C65.9085 17.5108 66.025 22.1509 69.0184 22.1534H86.2569V24.5267ZM67.833 104.368C67.823 96.3574 59.52 87.7419 49.6 93.3219V62.684L43.1842 12.154C43.0503 10.8173 41.917 10.5023 41.1556 10.48C40.3694 10.5023 38.7946 10.8173 38.6235 12.154L32.24 62.684V93.3219C22.32 87.7419 14.2848 96.412 14.2823 104.306C14.2848 111.329 19.6912 117.098 27.0072 117.08C34.3778 117.098 39.68 110.632 39.68 104.306V72.48H42.16V104.306C42.16 111.389 47.6458 116.631 53.7416 116.964C53.6399 120.847 54.9072 126.388 57.293 128.585C60.0904 131.164 63.421 127.866 62.0546 125.18C60.7352 122.68 59.4406 121.2 60.4922 115.741C64.8867 113.708 67.823 109.427 67.833 104.368ZM27.2899 110.67C23.8278 110.647 21.0304 107.84 21.0254 104.368C21.0304 100.898 23.8278 98.0786 27.2899 98.0587C30.7272 98.0786 33.5271 100.898 33.5519 104.368C33.5271 107.842 30.7272 110.65 27.2899 110.67ZM48.546 104.368C48.5683 100.898 51.3633 98.0786 54.8105 98.0587C58.2626 98.0786 61.0626 100.898 61.0725 104.368C61.0626 107.84 58.2651 110.647 54.8105 110.67C51.3633 110.65 48.5658 107.842 48.546 104.368Z" fill="black"/>
<path d="M190.039 72.0977H172.695L172.578 63.0156H188.691C191.113 63.0156 193.262 62.4688 195.137 61.375C197.012 60.2812 198.477 58.7188 199.531 56.6875C200.625 54.6172 201.172 52.1562 201.172 49.3047C201.172 46.1797 200.703 43.6406 199.766 41.6875C198.867 39.6953 197.48 38.25 195.605 37.3516C193.77 36.4141 191.426 35.9453 188.574 35.9453H174.98V112H164.199V26.6875H188.574C192.246 26.6875 195.527 27.1367 198.418 28.0352C201.309 28.8945 203.75 30.2617 205.742 32.1367C207.773 33.9727 209.316 36.3164 210.371 39.168C211.426 42.0195 211.953 45.4375 211.953 49.4219C211.953 52.9375 211.152 56.1211 209.551 58.9727C207.988 61.7852 205.801 64.0898 202.988 65.8867C200.176 67.6836 196.934 68.8359 193.262 69.3438L190.039 72.0977ZM189.629 112H168.242L174.512 102.801H189.629C192.441 102.801 194.824 102.176 196.777 100.926C198.73 99.6758 200.215 97.918 201.23 95.6523C202.285 93.3477 202.812 90.6328 202.812 87.5078C202.812 84.3438 202.383 81.6094 201.523 79.3047C200.664 77 199.297 75.2227 197.422 73.9727C195.547 72.7227 193.086 72.0977 190.039 72.0977H176.152L176.27 63.0156H195.02L197.422 66.2969C200.938 66.6484 203.887 67.8203 206.27 69.8125C208.691 71.7656 210.508 74.2656 211.719 77.3125C212.969 80.3594 213.594 83.7188 213.594 87.3906C213.594 92.7031 212.598 97.1953 210.605 100.867C208.652 104.5 205.879 107.273 202.285 109.188C198.691 111.062 194.473 112 189.629 112ZM250.977 113.172C247.188 113.172 243.77 112.605 240.723 111.473C237.676 110.34 235.078 108.621 232.93 106.316C230.781 103.973 229.141 101.023 228.008 97.4688C226.875 93.9141 226.309 89.7148 226.309 84.8711V77.7227C226.309 72.1367 226.953 67.4102 228.242 63.543C229.57 59.6758 231.348 56.5703 233.574 54.2266C235.801 51.8437 238.32 50.125 241.133 49.0703C243.945 47.9766 246.836 47.4297 249.805 47.4297C253.789 47.4297 257.188 48.0742 260 49.3633C262.812 50.6523 265.098 52.5664 266.855 55.1055C268.613 57.6445 269.902 60.7695 270.723 64.4805C271.582 68.1914 272.012 72.4688 272.012 77.3125V83.3477H232.402V74.5H261.641V73.0352C261.484 69.7539 261.035 66.8633 260.293 64.3633C259.59 61.8633 258.418 59.9102 256.777 58.5039C255.137 57.0586 252.812 56.3359 249.805 56.3359C247.891 56.3359 246.113 56.668 244.473 57.332C242.871 57.957 241.484 59.0703 240.312 60.6719C239.18 62.2344 238.281 64.4023 237.617 67.1758C236.992 69.9492 236.68 73.4648 236.68 77.7227V84.8711C236.68 88.2695 236.992 91.1992 237.617 93.6602C238.281 96.082 239.238 98.0938 240.488 99.6953C241.777 101.258 243.34 102.43 245.176 103.211C247.051 103.953 249.18 104.324 251.562 104.324C255.039 104.324 257.91 103.66 260.176 102.332C262.441 100.965 264.414 99.2266 266.094 97.1172L271.543 103.621C270.41 105.223 268.926 106.766 267.09 108.25C265.293 109.695 263.066 110.887 260.41 111.824C257.793 112.723 254.648 113.172 250.977 113.172ZM315.605 101.16V66.7656C315.605 64.2656 315.215 62.2539 314.434 60.7305C313.691 59.207 312.559 58.0938 311.035 57.3906C309.551 56.6875 307.676 56.3359 305.41 56.3359C303.223 56.3359 301.328 56.7852 299.727 57.6836C298.164 58.582 296.953 59.7734 296.094 61.2578C295.273 62.7422 294.863 64.3828 294.863 66.1797H284.492C284.492 63.9141 284.98 61.668 285.957 59.4414C286.973 57.2148 288.418 55.2031 290.293 53.4062C292.168 51.5703 294.414 50.125 297.031 49.0703C299.688 47.9766 302.656 47.4297 305.938 47.4297C309.844 47.4297 313.301 48.0742 316.309 49.3633C319.316 50.6133 321.68 52.6641 323.398 55.5156C325.117 58.3672 325.977 62.1562 325.977 66.8828V98.1719C325.977 100.281 326.133 102.527 326.445 104.91C326.797 107.293 327.285 109.344 327.91 111.062V112H317.188C316.68 110.75 316.289 109.09 316.016 107.02C315.742 104.91 315.605 102.957 315.605 101.16ZM317.246 73.5625L317.363 81.1797H310.156C307.695 81.1797 305.449 81.4531 303.418 82C301.426 82.5469 299.707 83.3477 298.262 84.4023C296.816 85.418 295.703 86.6875 294.922 88.2109C294.18 89.7344 293.809 91.4727 293.809 93.4258C293.809 95.9648 294.16 97.9961 294.863 99.5195C295.566 101.004 296.621 102.078 298.027 102.742C299.434 103.406 301.211 103.738 303.359 103.738C305.977 103.738 308.281 103.133 310.273 101.922C312.266 100.711 313.809 99.2461 314.902 97.5273C316.035 95.8086 316.562 94.207 316.484 92.7227L318.77 97.5859C318.613 99.1094 318.105 100.77 317.246 102.566C316.426 104.324 315.273 106.023 313.789 107.664C312.305 109.266 310.547 110.594 308.516 111.648C306.523 112.664 304.277 113.172 301.777 113.172C298.105 113.172 294.883 112.469 292.109 111.062C289.375 109.656 287.246 107.586 285.723 104.852C284.199 102.117 283.438 98.7383 283.438 94.7148C283.438 91.668 283.965 88.8555 285.02 86.2773C286.074 83.6992 287.637 81.4727 289.707 79.5977C291.777 77.6836 294.375 76.1992 297.5 75.1445C300.664 74.0898 304.316 73.5625 308.457 73.5625H317.246ZM374.141 97.3516V48.6016H384.512V112H374.668L374.141 97.3516ZM376.074 83.9922L380.176 83.875C380.176 88.0938 379.805 92 379.062 95.5938C378.359 99.1484 377.188 102.234 375.547 104.852C373.945 107.469 371.816 109.52 369.16 111.004C366.504 112.449 363.242 113.172 359.375 113.172C356.758 113.172 354.375 112.723 352.227 111.824C350.117 110.926 348.281 109.539 346.719 107.664C345.195 105.789 344.004 103.348 343.145 100.34C342.324 97.332 341.914 93.7188 341.914 89.5V48.6016H352.227V89.6172C352.227 92.4688 352.48 94.832 352.988 96.707C353.496 98.543 354.18 100.008 355.039 101.102C355.898 102.156 356.855 102.898 357.91 103.328C358.965 103.758 360.039 103.973 361.133 103.973C364.805 103.973 367.734 103.094 369.922 101.336C372.109 99.5391 373.672 97.1367 374.609 94.1289C375.586 91.082 376.074 87.7031 376.074 83.9922ZM423.242 48.6016V56.9219H393.652V48.6016H423.242ZM403.32 33.1914H413.691V96.2969C413.691 98.4453 413.945 100.066 414.453 101.16C415 102.254 415.684 102.977 416.504 103.328C417.324 103.68 418.203 103.855 419.141 103.855C419.844 103.855 420.625 103.777 421.484 103.621C422.344 103.426 422.93 103.27 423.242 103.152L423.184 112C422.48 112.273 421.543 112.527 420.371 112.762C419.199 113.035 417.715 113.172 415.918 113.172C413.691 113.172 411.621 112.645 409.707 111.59C407.793 110.535 406.25 108.777 405.078 106.316C403.906 103.816 403.32 100.457 403.32 96.2383V33.1914ZM450.312 105.438L464.434 48.6016H475.449L454.531 121.785C454.023 123.348 453.34 125.027 452.48 126.824C451.66 128.66 450.605 130.398 449.316 132.039C448.027 133.68 446.484 135.008 444.688 136.023C442.891 137.078 440.781 137.605 438.359 137.605C437.617 137.605 436.66 137.488 435.488 137.254C434.355 137.02 433.535 136.824 433.027 136.668V127.879C433.262 127.918 433.633 127.957 434.141 127.996C434.648 128.074 435.02 128.113 435.254 128.113C437.285 128.113 439.004 127.781 440.41 127.117C441.855 126.492 443.086 125.418 444.102 123.895C445.117 122.41 445.977 120.359 446.68 117.742L450.312 105.438ZM441.172 48.6016L453.77 97.8203L456.465 109.246L449.082 113.23L429.863 48.6016H441.172ZM491.855 26.6875L509.258 69.5195L526.719 26.6875H538.906L514.648 80.125V112H503.867V80.125L479.609 26.6875H491.855ZM542.656 83.3477V77.3125C542.656 72.3906 543.281 68.0742 544.531 64.3633C545.781 60.6133 547.52 57.4883 549.746 54.9883C551.973 52.4883 554.57 50.6133 557.539 49.3633C560.508 48.0742 563.691 47.4297 567.09 47.4297C570.566 47.4297 573.789 48.0742 576.758 49.3633C579.727 50.6133 582.324 52.4883 584.551 54.9883C586.816 57.4883 588.574 60.6133 589.824 64.3633C591.074 68.0742 591.699 72.3906 591.699 77.3125V83.3477C591.699 88.2695 591.074 92.6055 589.824 96.3555C588.574 100.066 586.836 103.172 584.609 105.672C582.383 108.172 579.785 110.047 576.816 111.297C573.848 112.547 570.645 113.172 567.207 113.172C563.77 113.172 560.566 112.547 557.598 111.297C554.629 110.047 552.012 108.172 549.746 105.672C547.52 103.172 545.781 100.066 544.531 96.3555C543.281 92.6055 542.656 88.2695 542.656 83.3477ZM553.027 77.3125V83.3477C553.027 86.8242 553.379 89.8711 554.082 92.4883C554.785 95.1055 555.781 97.293 557.07 99.0508C558.359 100.809 559.863 102.137 561.582 103.035C563.301 103.895 565.176 104.324 567.207 104.324C569.551 104.324 571.602 103.895 573.359 103.035C575.156 102.137 576.641 100.809 577.812 99.0508C578.984 97.293 579.863 95.1055 580.449 92.4883C581.035 89.8711 581.328 86.8242 581.328 83.3477V77.3125C581.328 73.8359 580.977 70.8086 580.273 68.2305C579.57 65.6133 578.574 63.4258 577.285 61.668C575.996 59.8711 574.473 58.543 572.715 57.6836C570.996 56.7852 569.121 56.3359 567.09 56.3359C565.098 56.3359 563.242 56.7852 561.523 57.6836C559.805 58.543 558.301 59.8711 557.012 61.668C555.762 63.4258 554.785 65.6133 554.082 68.2305C553.379 70.8086 553.027 73.8359 553.027 77.3125ZM637.109 97.3516V48.6016H647.48V112H637.637L637.109 97.3516ZM639.043 83.9922L643.145 83.875C643.145 88.0938 642.773 92 642.031 95.5938C641.328 99.1484 640.156 102.234 638.516 104.852C636.914 107.469 634.785 109.52 632.129 111.004C629.473 112.449 626.211 113.172 622.344 113.172C619.727 113.172 617.344 112.723 615.195 111.824C613.086 110.926 611.25 109.539 609.688 107.664C608.164 105.789 606.973 103.348 606.113 100.34C605.293 97.332 604.883 93.7188 604.883 89.5V48.6016H615.195V89.6172C615.195 92.4688 615.449 94.832 615.957 96.707C616.465 98.543 617.148 100.008 618.008 101.102C618.867 102.156 619.824 102.898 620.879 103.328C621.934 103.758 623.008 103.973 624.102 103.973C627.773 103.973 630.703 103.094 632.891 101.336C635.078 99.5391 636.641 97.1367 637.578 94.1289C638.555 91.082 639.043 87.7031 639.043 83.9922Z" fill="black"/>
</svg>
